<svg xmlns="http://www.w3.org/2000/svg" xmlns:xlink="http://www.w3.org/1999/xlink" width="52" height="52" viewBox="0 0 52 52">
  <defs>
    <filter id="Rectangle_1565" x="0" y="0" width="52" height="52" filterUnits="userSpaceOnUse">
      <feOffset dx="3" dy="3" input="SourceAlpha"/>
      <feGaussianBlur stdDeviation="1.5" result="blur"/>
      <feFlood flood-opacity="0.161"/>
      <feComposite operator="in" in2="blur"/>
      <feComposite in="SourceGraphic"/>
    </filter>
  </defs>
  <g id="Group_539" data-name="Group 539" transform="translate(-18.5 -329.5)">
    <g transform="matrix(1, 0, 0, 1, 18.5, 329.5)" filter="url(#Rectangle_1565)">
      <g id="Rectangle_1565-2" data-name="Rectangle 1565" transform="translate(1.5 1.5)" fill="#fff" stroke="#ff0092" stroke-width="2">
        <rect width="43" height="43" rx="21.5" stroke="none"/>
        <rect x="1" y="1" width="41" height="41" rx="20.5" fill="none"/>
      </g>
    </g>
    <path id="Icon_metro-calendar" data-name="Icon metro-calendar" d="M9.237,9.428H11.9v2.5H9.237Zm4,0H15.9v2.5H13.237Zm4,0H19.9v2.5H17.237Zm-12,7.5H7.9v2.5H5.237Zm4,0H11.9v2.5H9.237Zm4,0H15.9v2.5H13.237Zm-4-3.75H11.9v2.5H9.237Zm4,0H15.9v2.5H13.237Zm4,0H19.9v2.5H17.237Zm-12,0H7.9v2.5H5.237ZM19.9,1.928v1.25H17.237V1.928H7.9v1.25H5.237V1.928H2.571v20h20v-20H19.9Zm1.333,18.75H3.9V6.928H21.237Z" transform="translate(29.429 340.072)"/>
  </g>
</svg>
