<svg xmlns="http://www.w3.org/2000/svg" xmlns:xlink="http://www.w3.org/1999/xlink" width="75" height="75" viewBox="0 0 75 75">
  <defs>
    <filter id="Ellipse_42" x="0" y="0" width="75" height="75" filterUnits="userSpaceOnUse">
      <feOffset dy="3" input="SourceAlpha"/>
      <feGaussianBlur stdDeviation="3" result="blur"/>
      <feFlood flood-opacity="0.161"/>
      <feComposite operator="in" in2="blur"/>
      <feComposite in="SourceGraphic"/>
    </filter>
  </defs>
  <g id="Group_579" data-name="Group 579" transform="translate(-156 -1211)">
    <g transform="matrix(1, 0, 0, 1, 156, 1211)" filter="url(#Ellipse_42)">
      <g id="Ellipse_42-2" data-name="Ellipse 42" transform="translate(9 6)" fill="#fff" stroke="#ff0092" stroke-width="2">
        <circle cx="28.5" cy="28.5" r="28.5" stroke="none"/>
        <circle cx="28.5" cy="28.5" r="27.5" fill="none"/>
      </g>
    </g>
    <path id="Icon_feather-phone-call" data-name="Icon feather-phone-call" d="M17.981,6.08A5.725,5.725,0,0,1,22.5,10.6M17.981,1.5a10.3,10.3,0,0,1,9.1,9.091m-1.145,9.136v3.435a2.29,2.29,0,0,1-2.5,2.29,22.658,22.658,0,0,1-9.881-3.515,22.326,22.326,0,0,1-6.869-6.869A22.658,22.658,0,0,1,3.177,5.141a2.29,2.29,0,0,1,2.278-2.5H8.89a2.29,2.29,0,0,1,2.29,1.969,14.7,14.7,0,0,0,.8,3.217,2.29,2.29,0,0,1-.515,2.416L10.012,11.7a18.319,18.319,0,0,0,6.869,6.869l1.454-1.454a2.29,2.29,0,0,1,2.416-.515,14.7,14.7,0,0,0,3.217.8A2.29,2.29,0,0,1,25.938,19.727Z" transform="translate(178.441 1232.054)" fill="none" stroke="#000" stroke-linecap="round" stroke-linejoin="round" stroke-width="2"/>
  </g>
</svg>
