<svg xmlns="http://www.w3.org/2000/svg" xmlns:xlink="http://www.w3.org/1999/xlink" width="75" height="75" viewBox="0 0 75 75">
  <defs>
    <filter id="Ellipse_42" x="0" y="0" width="75" height="75" filterUnits="userSpaceOnUse">
      <feOffset dy="3" input="SourceAlpha"/>
      <feGaussianBlur stdDeviation="3" result="blur"/>
      <feFlood flood-opacity="0.161"/>
      <feComposite operator="in" in2="blur"/>
      <feComposite in="SourceGraphic"/>
    </filter>
  </defs>
  <g id="Group_580" data-name="Group 580" transform="translate(-41 -811)">
    <g transform="matrix(1, 0, 0, 1, 41, 811)" filter="url(#Ellipse_42)">
      <g id="Ellipse_42-2" data-name="Ellipse 42" transform="translate(9 6)" fill="#fff" stroke="#ff0092" stroke-width="2">
        <circle cx="28.5" cy="28.5" r="28.5" stroke="none"/>
        <circle cx="28.5" cy="28.5" r="27.5" fill="none"/>
      </g>
    </g>
    <path id="Icon_awesome-weight" data-name="Icon awesome-weight" d="M20.849,2.978H19.64A8.931,8.931,0,1,1,2.978,7.446,8.868,8.868,0,0,1,4.188,2.978H2.978A2.982,2.982,0,0,0,0,5.957V20.849a2.982,2.982,0,0,0,2.978,2.978H20.849a2.982,2.982,0,0,0,2.978-2.978V5.957A2.982,2.982,0,0,0,20.849,2.978ZM11.914,14.892A7.446,7.446,0,1,0,4.468,7.446,7.446,7.446,0,0,0,11.914,14.892ZM11.9,7.821l1.563-3.647a.745.745,0,0,1,1.37.586L13.266,8.416A1.853,1.853,0,1,1,11.9,7.821Z" transform="translate(67 834)"/>
  </g>
</svg>
