<svg xmlns="http://www.w3.org/2000/svg" xmlns:xlink="http://www.w3.org/1999/xlink" width="75" height="75" viewBox="0 0 75 75">
  <defs>
    <filter id="Ellipse_42" x="0" y="0" width="75" height="75" filterUnits="userSpaceOnUse">
      <feOffset dy="3" input="SourceAlpha"/>
      <feGaussianBlur stdDeviation="3" result="blur"/>
      <feFlood flood-opacity="0.161"/>
      <feComposite operator="in" in2="blur"/>
      <feComposite in="SourceGraphic"/>
    </filter>
  </defs>
  <g id="Group_582" data-name="Group 582" transform="translate(-41 -811)">
    <g transform="matrix(1, 0, 0, 1, 41, 811)" filter="url(#Ellipse_42)">
      <g id="Ellipse_42-2" data-name="Ellipse 42" transform="translate(9 6)" fill="#fff" stroke="#ff0092" stroke-width="2">
        <circle cx="28.5" cy="28.5" r="28.5" stroke="none"/>
        <circle cx="28.5" cy="28.5" r="27.5" fill="none"/>
      </g>
    </g>
    <path id="Icon_awesome-flag-usa" data-name="Icon awesome-flag-usa" d="M1.506,0A1.5,1.5,0,0,0,0,1.506V23.346a.755.755,0,0,0,.753.753H2.259a.755.755,0,0,0,.753-.753V1.506A1.5,1.5,0,0,0,1.506,0Zm12.61,14.29a12.587,12.587,0,0,0-9.6.522v3.262c8.741-4.34,10.435,2.509,18.71-1.087a1.478,1.478,0,0,0,.871-1.356V13.937a14.262,14.262,0,0,1-5.277,1.134,17.926,17.926,0,0,1-4.707-.781Zm0-4.519a12.587,12.587,0,0,0-9.6.522v2.895a13.975,13.975,0,0,1,9.984-.358,12.587,12.587,0,0,0,9.6-.522V9.413a14.262,14.262,0,0,1-5.277,1.134A17.737,17.737,0,0,1,14.116,9.771Zm.447-5.926C17,4.579,19.148,5.21,24.1,2.9V1.449A1.529,1.529,0,0,0,21.775.2c-8.063,4.109-7.4-3.125-17.256,1.327v7.15A14,14,0,0,1,14.5,8.317a12.631,12.631,0,0,0,9.6-.522V4.551a14.736,14.736,0,0,1-5.936,1.478,13.193,13.193,0,0,1-4.034-.748c-.188-.056-.381-.113-.57-.165V3.553c.339.094.673.193,1,.292ZM7.531,6.029a.753.753,0,1,1,.753-.753A.752.752,0,0,1,7.531,6.029Zm0-2.627a.753.753,0,1,1,.753-.753A.752.752,0,0,1,7.531,3.4Zm3.012,2.255A.753.753,0,1,1,11.3,4.9.752.752,0,0,1,10.544,5.657Zm0-2.631a.753.753,0,1,1,.753-.753A.752.752,0,0,1,10.544,3.026Z" transform="translate(66.811 833.915)"/>
  </g>
</svg>
