<svg xmlns="http://www.w3.org/2000/svg" xmlns:xlink="http://www.w3.org/1999/xlink" width="75" height="75" viewBox="0 0 75 75">
  <defs>
    <filter id="Ellipse_42" x="0" y="0" width="75" height="75" filterUnits="userSpaceOnUse">
      <feOffset dy="3" input="SourceAlpha"/>
      <feGaussianBlur stdDeviation="3" result="blur"/>
      <feFlood flood-opacity="0.161"/>
      <feComposite operator="in" in2="blur"/>
      <feComposite in="SourceGraphic"/>
    </filter>
  </defs>
  <g id="Group_577" data-name="Group 577" transform="translate(-270 -878)">
    <g transform="matrix(1, 0, 0, 1, 270, 878)" filter="url(#Ellipse_42)">
      <g id="Ellipse_42-2" data-name="Ellipse 42" transform="translate(9 6)" fill="#fff" stroke="#ff0092" stroke-width="2">
        <circle cx="28.5" cy="28.5" r="28.5" stroke="none"/>
        <circle cx="28.5" cy="28.5" r="27.5" fill="none"/>
      </g>
    </g>
    <path id="Icon_awesome-running" data-name="Icon awesome-running" d="M14.038,4.955a2.477,2.477,0,1,0-2.477-2.477A2.477,2.477,0,0,0,14.038,4.955ZM5.868,16.385,5.1,18.167H1.652a1.652,1.652,0,1,0,0,3.3h4a2.472,2.472,0,0,0,2.277-1.5l.454-1.059-.551-.325a4.915,4.915,0,0,1-1.961-2.2ZM19.819,11.56H17.546L16.2,8.812a4.952,4.952,0,0,0-3.189-2.629L9.344,5.092a4.934,4.934,0,0,0-4.172.885L3.125,7.546a1.651,1.651,0,0,0,2.01,2.621L7.183,8.6a1.607,1.607,0,0,1,1.3-.317l.759.226-1.933,4.51A3.312,3.312,0,0,0,8.67,17.161l4.386,2.589-1.418,4.528a1.651,1.651,0,1,0,3.152.987l1.633-5.216a2.488,2.488,0,0,0-1.117-2.807l-3.161-1.865,1.616-4.04,1.046,2.138a2.493,2.493,0,0,0,2.225,1.388h2.786a1.651,1.651,0,1,0,0-3.3Z" transform="translate(297 899)"/>
  </g>
</svg>
