<svg xmlns="http://www.w3.org/2000/svg" xmlns:xlink="http://www.w3.org/1999/xlink" width="75" height="75" viewBox="0 0 75 75">
  <defs>
    <filter id="Ellipse_42" x="0" y="0" width="75" height="75" filterUnits="userSpaceOnUse">
      <feOffset dy="3" input="SourceAlpha"/>
      <feGaussianBlur stdDeviation="3" result="blur"/>
      <feFlood flood-opacity="0.161"/>
      <feComposite operator="in" in2="blur"/>
      <feComposite in="SourceGraphic"/>
    </filter>
  </defs>
  <g id="Group_586" data-name="Group 586" transform="translate(-42 -1211)">
    <g transform="matrix(1, 0, 0, 1, 42, 1211)" filter="url(#Ellipse_42)">
      <g id="Ellipse_42-2" data-name="Ellipse 42" transform="translate(9 6)" fill="#fff" stroke="#ff0092" stroke-width="2">
        <circle cx="28.5" cy="28.5" r="28.5" stroke="none"/>
        <circle cx="28.5" cy="28.5" r="27.5" fill="none"/>
      </g>
    </g>
    <path id="Icon_ionic-md-hourglass" data-name="Icon ionic-md-hourglass" d="M9,3.375v7.652h.012L9,11.039l5.315,5.3L9,21.644l.012.012H9V29.3H24.951V21.656h-.012l.012-.012-5.315-5.309,5.315-5.3-.012-.012h.012V3.375ZM22.29,22.311v4.455H11.661V22.311L16.976,17Zm-5.315-6.636-5.315-5.309V5.842H22.3V10.36Z" transform="translate(62.3 1229)"/>
  </g>
</svg>
